<svg xmlns="http://www.w3.org/2000/svg" width="198" height="131" fill="none"><path fill="#009FE3" d="M37.883 11.373c0 3.102-1.31 5.652-3.79 7.375-1.724 1.103-3.516 1.585-5.24 1.792v2.964h-4.342v-3.033c-1.723-.206-3.515-.689-5.238-1.792-2.344-1.585-3.722-4.204-3.722-7.306 0-3.033 1.31-5.72 3.722-7.444a12.34 12.34 0 0 1 5.238-1.861V.483h4.343v1.516c1.723.207 3.584.827 5.238 1.93 2.55 1.723 3.791 4.411 3.791 7.444ZM24.58 16.06V6.686c-1.034.207-1.93.482-2.619 1.034-1.24.827-1.723 1.999-1.723 3.584 0 1.654.482 2.826 1.723 3.653.62.552 1.516.896 2.62 1.103Zm8.754-4.687c0-1.654-.552-2.826-1.723-3.584-.69-.483-1.655-.827-2.688-1.034v9.374c1.034-.207 1.999-.552 2.688-1.103 1.171-.896 1.723-2.068 1.723-3.653ZM43.467 20.195c-1.862-2.205-2.689-5.169-2.689-8.202 0-3.033.827-5.996 2.689-8.271C45.465 1.241 48.636 0 51.944 0c3.309 0 6.41 1.24 8.478 3.722 1.93 2.344 2.62 5.17 2.689 8.271-.07 3.17-.828 5.928-2.688 8.202-2.137 2.55-5.239 3.791-8.479 3.791-3.308 0-6.479-1.31-8.477-3.79Zm13.51-2.619c1.17-1.516 1.516-3.584 1.516-5.583s-.414-4.066-1.517-5.583c-1.172-1.585-3.033-2.274-5.032-2.343-1.998-.07-3.928.758-5.031 2.343-1.172 1.517-1.585 3.584-1.585 5.583 0 2 .413 4.067 1.585 5.583 1.103 1.517 3.033 2.275 5.032 2.275 1.998 0 3.86-.758 5.031-2.275ZM85.856.483v23.021h-4.342v-9.512h-10.27v9.512H66.9V.483h4.343v9.443h10.27V.483h4.342ZM111.635 19.437V26.4h-4.067v-2.895H93.783V26.4h-4.067v-6.962c1.585 0 2.619-1.86 3.033-5.514L94.334.483h15.922v18.954h1.379ZM106.189 4.55h-8.202l-1.172 9.857c-.275 2.136-.551 3.86-1.447 5.031h10.821V4.55ZM32.024 45.216c-1.447 1.516-3.446 2.137-5.79 2.137h-5.376v7.857h-4.342V32.19h9.718c2.688 0 4.205.69 5.514 1.93 1.655 1.585 2.275 3.24 2.344 5.652 0 2.205-.827 4.204-2.068 5.445Zm-2.343-5.445c0-.827-.207-1.861-.759-2.55-.551-.69-1.378-.965-2.55-.965h-5.514v7.03h5.514a3.5 3.5 0 0 0 2.62-1.24c.482-.552.689-1.517.689-2.275ZM50.566 50.386H41.95l-1.447 4.824h-4.48l7.03-23.021h6.48l7.03 23.021h-4.48l-1.517-4.825Zm-1.24-4.067-3.102-10.064-3.102 10.064h6.203ZM62.284 32.947c1.585-.827 3.446-1.24 5.17-1.24 2.136 0 4.548.482 6.203 1.791 1.654 1.172 2.619 3.102 2.619 5.17 0 .69-.207 1.792-.414 2.481-.275.758-.758 1.448-1.31 2.137.759.62 1.241 1.31 1.655 2.137.482.965.69 2.136.69 3.377 0 2.068-1.31 4.205-3.103 5.308-1.792 1.171-4.273 1.654-6.272 1.654-1.93 0-3.998-.345-5.652-1.24a9.677 9.677 0 0 1-3.79-3.654l3.17-2.55a7.557 7.557 0 0 0 2.481 2.412 7.614 7.614 0 0 0 3.653.965c1.448 0 2.895-.276 3.929-1.172.62-.62.896-1.24.896-1.792 0-.896-.276-1.723-.896-2.205-.758-.62-1.999-.965-3.102-.965h-3.446v-4.205h3.446c.965 0 1.93-.276 2.62-.827.62-.483.827-1.24.827-1.861 0-.827-.345-1.448-.965-1.999-.896-.758-2.206-.965-3.309-.965-1.378 0-2.274.345-3.446.896a9.41 9.41 0 0 0-2.413 1.723l-2.688-3.101c.965-.828 2.275-1.724 3.447-2.275ZM97.919 48.18c0 2.068-.552 3.998-2 5.307-1.309 1.24-2.687 1.723-5.444 1.723h-9.72V32.19h9.168c1.999 0 3.515.413 4.894 1.723s1.999 2.964 1.999 4.825c0 1.654-.69 3.17-1.654 3.929-.207.138-.345.275-.552.413.552.207 1.034.483 1.448.896 1.171.896 1.86 2.62 1.86 4.205ZM85.167 36.255v4.894h4.756c.965 0 1.516-.275 1.999-.758.414-.482.551-1.034.551-1.654 0-.62-.206-1.31-.689-1.792-.482-.483-1.103-.69-1.86-.69h-4.757Zm8.41 11.925c0-.758-.207-1.586-.828-2.206-.69-.69-1.585-.758-2.206-.758h-5.376v5.859h5.308c.896 0 1.585-.276 2.205-.827.552-.552.896-1.241.896-2.068ZM120.595 32.189V55.21h-4.411V39.84l-9.995 15.37h-4.48V32.19h4.411v15.37l10.064-15.37h4.411ZM142.307 36.255h-7.237V55.21h-4.412V36.255h-7.237V32.19h18.817v4.066h.069ZM163.95 32.189V55.21h-4.411V39.84l-9.995 15.37h-4.411V32.19h4.411v15.37l9.995-15.37h4.411ZM185.041 55.21h-4.342v-7.857h-4.825l-3.791 7.857h-4.894l4.205-8.684c-.689-.345-1.31-.759-1.792-1.31-1.31-1.31-2.137-3.24-2.068-5.445 0-2.413.689-4.067 2.344-5.652 1.309-1.31 2.826-1.93 5.514-1.93h9.718V55.21h-.069Zm-4.342-11.924v-7.03h-5.514c-1.172 0-1.999.275-2.55.965-.552.689-.759 1.723-.759 2.55 0 .758.207 1.723.759 2.274a3.5 3.5 0 0 0 2.619 1.241h5.445Z"/><path fill="#000" d="M32.714 64.653V84.78h-3.86V71.34L20.1 84.848h-3.86V64.653h3.86v13.441l8.754-13.44h3.86ZM53.53 64.653V84.78h-3.792v-8.271h-9.03v8.34h-3.79V64.653h3.79v8.271h9.03v-8.27h3.791ZM74.346 64.653V84.78h-3.791v-8.271h-9.03v8.34h-3.79V64.653h3.79v8.271h9.03v-8.27h3.79ZM80.066 81.954c-1.654-1.93-2.343-4.48-2.343-7.168 0-2.689.758-5.239 2.343-7.238 1.792-2.205 4.48-3.308 7.444-3.308 2.964 0 5.652 1.103 7.444 3.308 1.724 2.068 2.275 4.55 2.344 7.238-.07 2.826-.69 5.17-2.344 7.168-1.86 2.206-4.618 3.309-7.444 3.309-2.895 0-5.72-1.103-7.444-3.309Zm11.787-2.274c1.034-1.31 1.378-3.102 1.378-4.894 0-1.792-.344-3.585-1.378-4.894-1.034-1.31-2.688-1.999-4.412-1.999-1.723 0-3.446.69-4.411 1.999-1.034 1.31-1.379 3.17-1.379 4.894 0 1.792.345 3.584 1.379 4.894.965 1.378 2.688 1.998 4.411 1.998 1.724 0 3.447-.689 4.412-1.998ZM115.633 78.645c0 1.793-.483 3.516-1.723 4.688-1.172 1.102-2.413 1.516-4.756 1.516h-8.478V64.653h8.064c1.792 0 3.102.345 4.343 1.517 1.24 1.171 1.723 2.55 1.792 4.273 0 1.448-.621 2.757-1.448 3.447-.138.137-.275.275-.482.344.482.207.896.414 1.309.758.759.828 1.379 2.275 1.379 3.653Zm-11.166-10.407v4.342h4.135c.827 0 1.379-.276 1.792-.69.414-.413.483-.895.483-1.447 0-.551-.138-1.172-.62-1.585-.414-.414-.965-.62-1.655-.62h-4.135Zm7.375 10.407c0-.689-.207-1.378-.689-1.93-.621-.62-1.379-.689-1.93-.689h-4.756v5.17h4.687c.827 0 1.378-.276 1.93-.758.551-.483.758-1.034.758-1.793ZM130.383 80.644h-7.582l-1.31 4.205h-3.929l6.135-20.127h5.652l6.134 20.127h-3.928l-1.172-4.205Zm-1.103-3.584-2.757-8.823-2.688 8.823h5.445ZM157.471 81.472v5.858h-3.791v-2.55h-15.233V64.653h3.791v16.819h9.168V65.205h3.79v16.267h2.275ZM177.322 64.653V84.78h-3.86V71.34l-8.753 13.44h-3.86V64.653h3.86v13.441l8.753-13.44h3.86ZM198 64.653V84.78h-3.86V71.339l-8.754 13.44h-3.86V64.654h3.86v13.44l8.754-13.44H198Zm-3.102-6.134a4.471 4.471 0 0 1-4.48 4.48 4.471 4.471 0 0 1-4.48-4.48h2.964a1.53 1.53 0 0 0 1.516 1.516 1.53 1.53 0 0 0 1.516-1.516h2.964ZM197.931 99.175H75.173v18.196H197.93V99.175Z"/><path fill="#000" d="M115.013 116.407h-39.84v13.854h39.84v-13.854Z"/><path fill="#fff" d="M82.893 107.446h-1.93v4.066h-1.31v-9.305h1.31v3.998h1.93l2.895-3.998h1.447l-3.308 4.481 3.446 4.755h-1.516l-2.964-3.997ZM94.265 104.826c.552.276.965.69 1.24 1.241.276.551.483 1.172.483 1.861 0 .689-.138 1.31-.482 1.861-.276.552-.758.965-1.24 1.241-.552.276-1.173.482-1.862.482-.482 0-.965-.069-1.378-.275a3.052 3.052 0 0 1-1.034-.828v3.654H88.75v-9.581h1.24v1.103c.276-.414.621-.69 1.103-.896.414-.207.897-.276 1.448-.276a3.96 3.96 0 0 1 1.723.413Zm-.758 5.308c.345-.207.62-.483.827-.896.207-.345.345-.827.345-1.31 0-.482-.138-.896-.345-1.31-.207-.344-.482-.689-.827-.896-.345-.206-.758-.275-1.24-.275a2.33 2.33 0 0 0-1.172.344c-.345.207-.62.483-.828.896a2.643 2.643 0 0 0-.344 1.31c0 .483.069.896.275 1.31.207.344.483.689.828.896.344.206.758.344 1.24.344.483-.069.896-.206 1.24-.413ZM102.468 105.102c.551.483.758 1.172.758 2.137v4.273h-1.241v-.965c-.207.345-.482.552-.896.759-.414.206-.827.275-1.379.275-.758 0-1.447-.207-1.86-.551-.483-.414-.69-.896-.69-1.517 0-.62.207-1.102.69-1.516.482-.345 1.171-.551 2.136-.551h1.999v-.276c0-.552-.138-.965-.482-1.241-.345-.275-.759-.413-1.379-.413-.414 0-.827.069-1.24.206a3.653 3.653 0 0 0-1.035.552l-.551-.965c.345-.276.827-.483 1.31-.689a5.87 5.87 0 0 1 1.585-.207c1.034 0 1.792.207 2.275.689Zm-1.241 5.17c.344-.207.62-.552.758-.896v-.965h-1.93c-1.103 0-1.585.344-1.585 1.102 0 .345.138.621.413.828.276.206.62.275 1.172.275.414 0 .827-.138 1.172-.344ZM106.741 111.099a3.007 3.007 0 0 1-1.309-1.31c-.345-.551-.483-1.172-.483-1.861 0-.689.138-1.31.483-1.861.344-.551.758-.965 1.309-1.241.552-.275 1.172-.482 1.93-.482.621 0 1.172.138 1.723.413.483.276.896.621 1.172 1.103l-.965.621c-.207-.345-.482-.621-.827-.759-.345-.137-.689-.275-1.103-.275-.482 0-.896.069-1.24.275-.345.207-.621.483-.896.896a2.641 2.641 0 0 0-.345 1.31c0 .483.138.896.345 1.31.206.344.482.689.896.896.413.206.758.275 1.24.275.414 0 .758-.069 1.103-.275.345-.138.62-.414.827-.758l.965.62c-.276.482-.689.827-1.172 1.103-.482.275-1.033.413-1.723.413-.758.069-1.378-.069-1.93-.413ZM113.151 104.482h1.241v2.964h3.998v-2.964h1.24v7.03h-1.24v-2.964h-3.998v2.964h-1.241v-7.03ZM123.283 111.099c-.551-.276-.965-.759-1.309-1.31-.345-.551-.483-1.172-.483-1.861 0-.689.138-1.31.483-1.861.344-.551.758-.965 1.309-1.241.552-.275 1.172-.482 1.861-.482.69 0 1.31.138 1.861.482.552.276.965.759 1.31 1.241.345.551.482 1.172.482 1.861 0 .689-.137 1.31-.482 1.861a3.972 3.972 0 0 1-1.31 1.31c-.551.275-1.171.482-1.861.482-.689 0-1.309-.138-1.861-.482Zm3.102-.965c.345-.207.62-.483.827-.896.207-.414.276-.827.276-1.31 0-.482-.069-.896-.276-1.31a2.098 2.098 0 0 0-.827-.896c-.345-.206-.758-.275-1.241-.275-.482 0-.827.069-1.24.275a2.092 2.092 0 0 0-.827.896 2.641 2.641 0 0 0-.345 1.31c0 .483.138.896.345 1.31.206.344.482.689.827.896.344.206.758.344 1.24.344.483 0 .896-.138 1.241-.344ZM137.758 110.41v2.757h-1.172v-1.655h-5.927v1.655h-1.241v-2.757h.345c.482 0 .758-.345.896-.965.138-.621.275-1.448.344-2.62l.138-2.343h5.445v5.928h1.172Zm-5.652-1.31c-.138.551-.345.965-.62 1.241h3.929v-4.825h-3.033l-.069 1.378a50.24 50.24 0 0 1-.207 2.206ZM144.168 105.102c.552.483.758 1.172.758 2.137v4.273h-1.171v-.965c-.207.345-.483.552-.896.759-.414.206-.828.275-1.379.275-.758 0-1.447-.207-1.861-.551-.483-.414-.689-.896-.689-1.517 0-.62.206-1.102.689-1.516.482-.345 1.172-.551 2.137-.551h1.999v-.276c0-.552-.138-.965-.483-1.241-.345-.275-.758-.413-1.378-.413-.414 0-.828.069-1.241.206a3.65 3.65 0 0 0-1.034.552l-.551-.965c.344-.276.827-.483 1.309-.689a5.872 5.872 0 0 1 1.585-.207c.897 0 1.655.207 2.206.689Zm-1.309 5.17c.344-.207.62-.552.758-.896v-.965h-1.93c-1.103 0-1.586.344-1.586 1.102 0 .345.138.621.414.828.276.206.62.275 1.172.275.413 0 .827-.138 1.172-.344ZM152.784 104.826c.552.276.965.69 1.241 1.241.276.551.482 1.172.482 1.861 0 .689-.137 1.31-.482 1.861-.276.552-.758.965-1.241 1.241-.551.276-1.172.482-1.861.482-.482 0-.965-.069-1.378-.275a3.042 3.042 0 0 1-1.034-.828v3.654h-1.31v-9.581h1.241v1.103c.276-.414.62-.69 1.103-.896.413-.207.896-.276 1.447-.276.62 0 1.241.138 1.792.413Zm-.758 5.308c.345-.207.62-.483.827-.896.207-.345.345-.827.345-1.31 0-.482-.138-.896-.345-1.31-.207-.344-.482-.689-.827-.896-.345-.206-.758-.275-1.241-.275-.413 0-.827.138-1.171.344a2.1 2.1 0 0 0-.828.896 2.652 2.652 0 0 0-.344 1.31c0 .483.069.896.276 1.31.206.344.482.689.827.896.344.206.758.344 1.24.344.483-.069.896-.206 1.241-.413ZM157.472 111.099a3.01 3.01 0 0 1-1.31-1.31c-.344-.551-.482-1.172-.482-1.861 0-.689.138-1.31.482-1.861.345-.551.758-.965 1.31-1.241.551-.275 1.172-.482 1.93-.482.62 0 1.171.138 1.723.413.482.276.896.621 1.172 1.103l-.965.621c-.207-.345-.483-.621-.827-.759-.345-.137-.69-.275-1.103-.275-.483 0-.896.069-1.241.275-.345.207-.62.483-.896.896a2.641 2.641 0 0 0-.345 1.31c0 .483.138.896.345 1.31.207.344.482.689.896.896.414.206.758.275 1.241.275.413 0 .758-.069 1.103-.275.344-.138.62-.414.827-.758l.965.62c-.276.482-.69.827-1.172 1.103-.483.275-1.034.413-1.723.413-.69.069-1.379-.069-1.93-.413ZM166.638 108.548h-1.447v2.964h-1.241v-7.03h1.241v2.964h1.516l2.275-2.964h1.378l-2.688 3.377 2.826 3.653h-1.516l-2.344-2.964ZM172.704 111.099c-.551-.276-.965-.759-1.309-1.31-.345-.551-.483-1.172-.483-1.861 0-.689.138-1.31.483-1.861.344-.551.758-.965 1.309-1.241.552-.275 1.172-.482 1.861-.482.69 0 1.31.138 1.861.482.552.276.965.759 1.31 1.241.345.551.482 1.172.482 1.861 0 .689-.137 1.31-.482 1.861a3.972 3.972 0 0 1-1.31 1.31c-.551.275-1.171.482-1.861.482-.62 0-1.309-.138-1.861-.482Zm3.102-.965c.345-.207.62-.483.827-.896.207-.414.276-.827.276-1.31 0-.482-.069-.896-.276-1.31a2.098 2.098 0 0 0-.827-.896c-.345-.206-.758-.275-1.241-.275-.482 0-.827.069-1.24.275a2.1 2.1 0 0 0-.828.896 2.652 2.652 0 0 0-.344 1.31c0 .483.138.896.344 1.31.207.344.483.689.828.896.344.206.758.344 1.24.344.483 0 .896-.138 1.241-.344ZM185.249 105.585h-3.929v5.927h-1.241v-7.03h5.17v1.103ZM187.386 111.099c-.552-.276-.965-.759-1.31-1.31-.344-.551-.482-1.172-.482-1.861 0-.689.138-1.31.482-1.861.345-.551.758-.965 1.31-1.241.551-.275 1.172-.482 1.861-.482.689 0 1.309.138 1.861.482.551.276.965.759 1.31 1.241.344.551.482 1.172.482 1.861 0 .689-.138 1.31-.482 1.861a3.982 3.982 0 0 1-1.31 1.31c-.552.275-1.172.482-1.861.482-.689 0-1.31-.138-1.861-.482Zm3.102-.965c.344-.207.62-.483.827-.896.206-.414.275-.827.275-1.31 0-.482-.069-.896-.275-1.31a2.104 2.104 0 0 0-.827-.896c-.345-.206-.759-.275-1.241-.275-.483 0-.827.069-1.241.275-.344.207-.62.483-.827.896a2.641 2.641 0 0 0-.345 1.31c0 .483.138.896.345 1.31.207.344.483.689.827.896.345.206.758.344 1.241.344a2.39 2.39 0 0 0 1.241-.344ZM82.134 122.334h-1.447v2.964h-1.24v-7.031h1.24v2.964h1.516l2.275-2.964h1.379l-2.689 3.378 2.826 3.653h-1.516l-2.344-2.964ZM92.887 118.612c.552.276.965.689 1.24 1.241.277.551.483 1.171.483 1.861 0 .689-.138 1.309-.482 1.861-.276.551-.758.965-1.24 1.24-.552.276-1.173.483-1.862.483-.482 0-.965-.069-1.378-.276a3.05 3.05 0 0 1-1.034-.827v3.653h-1.241v-9.581h1.24v1.103c.276-.413.621-.689 1.104-.896.413-.207.896-.276 1.447-.276s1.172.138 1.723.414Zm-.69 5.307c.346-.207.621-.482.828-.896.207-.344.345-.827.345-1.309 0-.483-.138-.896-.345-1.31-.207-.345-.482-.689-.827-.896-.345-.207-.758-.276-1.24-.276-.414 0-.828.138-1.172.345-.345.207-.62.482-.828.896a2.64 2.64 0 0 0-.344 1.31c0 .482.069.896.275 1.309.207.345.483.689.828.896.344.207.758.345 1.24.345.483-.069.827-.207 1.24-.414ZM101.158 118.888c.551.482.758 1.171.758 2.136v4.274h-1.241v-.965c-.206.344-.482.551-.896.758-.413.207-.827.276-1.378.276-.758 0-1.448-.207-1.861-.552-.483-.413-.69-.896-.69-1.516s.207-1.103.69-1.516c.482-.345 1.172-.552 2.137-.552h1.998v-.276c0-.551-.137-.965-.482-1.24-.345-.276-.758-.414-1.379-.414-.413 0-.827.069-1.24.207a3.676 3.676 0 0 0-1.034.551l-.552-.965c.345-.275.828-.482 1.31-.689a5.87 5.87 0 0 1 1.585-.207c.965 0 1.724.207 2.275.69Zm-1.31 5.169c.345-.207.621-.551.759-.896v-.965h-1.93c-1.103 0-1.586.345-1.586 1.103 0 .345.138.62.414.827.276.207.62.276 1.172.276.413 0 .827-.138 1.171-.345ZM109.843 118.267v7.031h-1.172v-2.206h-2.136l-1.517 2.206h-1.378l1.723-2.413c-.552-.138-.965-.413-1.241-.758-.276-.345-.413-.827-.413-1.379 0-.827.275-1.447.827-1.861.551-.413 1.309-.62 2.274-.62h3.033Zm-4.411 3.515c.275.207.758.345 1.309.345h1.93v-2.757h-1.93c-1.24 0-1.861.482-1.861 1.378.069.483.276.828.552 1.034Z"/><path fill="#009FE3" d="M0 0h3.499v84.752H0z"/><ellipse cx="52.237" cy="12.671" fill="#009FE3" rx="10.003" ry="10.447"/></svg>