<svg xmlns="http://www.w3.org/2000/svg" viewBox="0 0 174.96 49.24"><defs><style>.cls-2{fill:#4d5759}</style></defs><g id="Слой_2" data-name="Слой 2"><g id="Слой_1-2" data-name="Слой 1"><path d="M12.31 0A12.31 12.31 0 0 0 0 12.31v24.62a12.31 12.31 0 0 0 12.31 12.31h24.62a12.31 12.31 0 0 0 12.31-12.31V0Z" style="fill:#b1ec52"/><path d="M40.69 18.46h-5.91l-5.63 6.16V12.31h-4.56v3q-.22-.29-.48-.57A9.37 9.37 0 0 0 17 12.07 8.09 8.09 0 0 0 10.39 15a7.12 7.12 0 0 0-1.5 5.73c1.06 4.74 5.46 5.5 8.69 5.92 2.55.33 5 .8 4.93 3.07s-2.73 2.92-4.51 2.92c-4.55 0-4.7-3.36-4.7-3.36H8.44a8.19 8.19 0 0 0 2 5c1.7 1.91 4.25 2.87 7.58 2.87a9.84 9.84 0 0 0 6.56-2.31v2h4.56v-5.75l1.62-1.76 4.61 7.57h5.31L34 25.81Zm-27.23 1.2c-.4-1.76 1.35-3.32 3.63-3.32 2 0 4.09.46 4.87 3.32h2.63V24c-3.27-2.68-10.37-1-11.13-4.34ZM69.82 23.33a5.86 5.86 0 0 0-.49-.69 3.25 3.25 0 0 0-.74-.59 4.1 4.1 0 0 0-1-.43 5.37 5.37 0 0 0-1.43-.16 5.13 5.13 0 0 0-.81.08 5.85 5.85 0 0 0-1 .33 5.6 5.6 0 0 0-1 .69 3.82 3.82 0 0 0-.84 1.12 6.1 6.1 0 0 0-.64 1.72 10.8 10.8 0 0 0-.23 2.37 10.33 10.33 0 0 0 .31 2.66 6 6 0 0 0 .89 2 3.8 3.8 0 0 0 1.43 1.22 3.9 3.9 0 0 0 1.86.44 4.75 4.75 0 0 0 2-.36 3.81 3.81 0 0 0 1.23-.92 3.62 3.62 0 0 0 .64-1.13c.15-.38.28-.74.36-1h3.8a8.87 8.87 0 0 1-1 3 7.27 7.27 0 0 1-1.76 2.1A7.14 7.14 0 0 1 69 37a9.72 9.72 0 0 1-6.39-.28A7.14 7.14 0 0 1 60 34.79a8.78 8.78 0 0 1-1.63-3.06 12.89 12.89 0 0 1-.56-4 12.65 12.65 0 0 1 .33-3.06 9.65 9.65 0 0 1 .86-2.42 8.28 8.28 0 0 1 1.38-1.84 7 7 0 0 1 1.71-1.27 8.9 8.9 0 0 1 1.95-.77 9.63 9.63 0 0 1 2.06-.23 10.17 10.17 0 0 1 2.66.31 8.45 8.45 0 0 1 2 .84 6.42 6.42 0 0 1 1.49 1.2 8.73 8.73 0 0 1 1 1.38 9.76 9.76 0 0 1 .58 1.43 6.41 6.41 0 0 1 .23 1.33H70.3l-.18-.63a4 4 0 0 0-.3-.67ZM84.34 23.35H89L83.42 29l5.84 7.94h-4.59l-4-5.75-1.43 1.46v4.29h-3.51V23.35h3.52v5.16Z" class="cls-2"/><path d="M89.1 27.26A6 6 0 0 1 90.48 25a6.24 6.24 0 0 1 2.19-1.48 7.44 7.44 0 0 1 2.89-.54 7.59 7.59 0 0 1 2.94.54 6.07 6.07 0 0 1 2.17 1.48 7.23 7.23 0 0 1 1.38 2.3 9.28 9.28 0 0 1 0 5.77 7.12 7.12 0 0 1-1.38 2.3 6.48 6.48 0 0 1-2.17 1.48 7.59 7.59 0 0 1-2.94.54 7.44 7.44 0 0 1-2.89-.54 6.67 6.67 0 0 1-2.19-1.48A6 6 0 0 1 89.1 33a8.74 8.74 0 0 1 0-5.77Zm3.37 4.39A3.44 3.44 0 0 0 93 33a2.9 2.9 0 0 0 1 1 3.06 3.06 0 0 0 1.53.35 3.21 3.21 0 0 0 1.61-.35 3 3 0 0 0 1-.95 3.68 3.68 0 0 0 .53-1.33 7.64 7.64 0 0 0 0-3.11 3.9 3.9 0 0 0-.53-1.36A2.76 2.76 0 0 0 95.56 26a3.06 3.06 0 0 0-1.53.35 3 3 0 0 0-1 1 3.52 3.52 0 0 0-.56 1.35 8 8 0 0 0-.18 1.54 7.42 7.42 0 0 0 .18 1.41ZM109.15 26.21l-.05 2.53a48.81 48.81 0 0 1-.29 3.76 10.52 10.52 0 0 1-.69 2.68 4 4 0 0 1-1.3 1.63 3.71 3.71 0 0 1-2.09.54c-.41 0-.74 0-1-.05a3.33 3.33 0 0 1-.74-.21v-3l.46.15a3.78 3.78 0 0 0 .64 0 1 1 0 0 0 .71-.25 1.76 1.76 0 0 0 .54-.87 9.43 9.43 0 0 0 .36-1.79c.07-.76.12-1.73.15-2.93l.1-5.14h10.93v13.68h-3.49V26.21ZM128 23.35h4.7L127.09 29l5.85 7.94h-4.59l-4-5.75-1.43 1.46v4.29h-3.52V23.35h3.52v5.16Z" class="cls-2"/><path d="M132.77 27.26a6.29 6.29 0 0 1 1.38-2.3 6.37 6.37 0 0 1 2.2-1.48 7.41 7.41 0 0 1 2.89-.54 7.54 7.54 0 0 1 2.93.54 5.9 5.9 0 0 1 2.17 1.52 6.88 6.88 0 0 1 1.38 2.3 9.28 9.28 0 0 1 0 5.77 6.79 6.79 0 0 1-1.38 2.3 6.28 6.28 0 0 1-2.17 1.48 7.54 7.54 0 0 1-2.93.54 7.41 7.41 0 0 1-2.89-.54 6.82 6.82 0 0 1-2.2-1.48 6.2 6.2 0 0 1-1.38-2.3 8.91 8.91 0 0 1 0-5.77Zm3.38 4.39a3.44 3.44 0 0 0 .56 1.36 2.87 2.87 0 0 0 1 1 3.1 3.1 0 0 0 1.54.35 3.21 3.21 0 0 0 1.58-.35 3 3 0 0 0 1-.95 3.68 3.68 0 0 0 .53-1.33 7.64 7.64 0 0 0 0-3.11 3.9 3.9 0 0 0-.53-1.36 2.76 2.76 0 0 0-2.59-1.26 3.1 3.1 0 0 0-1.54.35 3 3 0 0 0-1 1 3.52 3.52 0 0 0-.56 1.35 7.28 7.28 0 0 0-.18 1.54 6.77 6.77 0 0 0 .19 1.41ZM156.67 23.51a5.36 5.36 0 0 1 1.53.56 3 3 0 0 1 1.05 1.1 3.53 3.53 0 0 1 .38 1.76 3.2 3.2 0 0 1-.12 1 2.2 2.2 0 0 1-.36.77 2 2 0 0 1-.51.54 3.33 3.33 0 0 1-.62.38 2.86 2.86 0 0 1 1.56 1.15 3.28 3.28 0 0 1 .54 1.89 4.57 4.57 0 0 1-.31 1.74 3.7 3.7 0 0 1-.94 1.32 4 4 0 0 1-1.48.87 5.72 5.72 0 0 1-1.94.31h-7.62V23.35h7a9.67 9.67 0 0 1 1.84.16Zm-1.58 5.08a1.93 1.93 0 0 0 .61-.28.85.85 0 0 0 .33-.44 1.63 1.63 0 0 0 .1-.64 1.33 1.33 0 0 0-.1-.56 1.08 1.08 0 0 0-.33-.43 1.71 1.71 0 0 0-.59-.28 3.15 3.15 0 0 0-.94-.11h-2.81v2.84h2.71a5.67 5.67 0 0 0 1.02-.1Zm.23 5.69a2 2 0 0 0 .71-.43 1.09 1.09 0 0 0 .33-.54 1.89 1.89 0 0 0 .08-.56 2 2 0 0 0-.13-.84.93.93 0 0 0-.41-.51 1.39 1.39 0 0 0-.74-.28 6.67 6.67 0 0 0-1.09-.08h-2.71v3.4h2.71a3.91 3.91 0 0 0 1.25-.16ZM161.55 27.26a6.14 6.14 0 0 1 3.58-3.78 7.36 7.36 0 0 1 2.88-.54 7.59 7.59 0 0 1 2.94.54 6 6 0 0 1 2.17 1.52 6.88 6.88 0 0 1 1.38 2.3 9.28 9.28 0 0 1 0 5.77 6.79 6.79 0 0 1-1.38 2.3 6.38 6.38 0 0 1-2.12 1.44 7.59 7.59 0 0 1-2.94.54 7.36 7.36 0 0 1-2.88-.54 6.71 6.71 0 0 1-2.2-1.48 6.2 6.2 0 0 1-1.38-2.3 8.74 8.74 0 0 1 0-5.77Zm3.37 4.39a3.44 3.44 0 0 0 .56 1.36 2.9 2.9 0 0 0 1 1 3.09 3.09 0 0 0 1.53.35 3.19 3.19 0 0 0 1.58-.35 2.94 2.94 0 0 0 1-.95 3.52 3.52 0 0 0 .54-1.33 8.14 8.14 0 0 0 0-3.11 3.73 3.73 0 0 0-.54-1.36 3.11 3.11 0 0 0-1-.94A3.2 3.2 0 0 0 168 26a3.09 3.09 0 0 0-1.53.35 3 3 0 0 0-1 1 3.52 3.52 0 0 0-.56 1.35 8 8 0 0 0-.18 1.54 7.42 7.42 0 0 0 .19 1.41Z" class="cls-2"/></g></g></svg>