<svg width="40" height="40" viewBox="0 0 40 40" fill="none" xmlns="http://www.w3.org/2000/svg">
<path d="M19.1792 40H20.8448C29.8864 40 34.408 40 37.216 37.192C40.024 34.384 40 29.864 40 20.8448V19.1552C40 10.1376 40 5.61601 37.216 2.80801C34.432 8.04663e-06 29.8864 0 20.8448 0H19.1792C10.136 0 5.616 8.04663e-06 2.808 2.80801C-1.78814e-06 5.61601 0 10.1344 0 19.1552V20.8448C0 29.864 -1.78814e-06 34.384 2.808 37.192C5.616 40 10.136 40 19.1792 40Z" fill="black"/>
<path d="M21.3822 28.8C12.1933 28.8 6.61671 22.4883 6.3999 12H11.0539C11.199 19.7045 14.7395 22.9741 17.4537 23.6405V12H21.9153V18.6474C24.5332 18.3601 27.2719 15.3358 28.1944 12H32.5811C31.8785 16.104 28.897 19.1283 26.7877 20.3758C28.897 21.3844 32.2909 24.0246 33.5999 28.8H28.7764C27.7576 25.6078 25.2602 23.1354 21.9153 22.7997V28.8H21.3822Z" fill="white"/>
</svg>
